# xmcd
#
# Track frame offsets:
#	150
#	13407
#	26833
#	39044
#	52478
#	65035
#	77466
#	91343
#	103890
#	117018
#	130919
#	143809
#	158048
#	171734
#	185735
#	199089
#	211843
#	224368
#	237368
#	248918
#	259031
#	272536
#	285904
#	298189
#	310596
#	323436
#
# Disc length: 4458 seconds
#
# Revision: 1
# Processed by: cddbd v1.5.2PL0 Copyright (c) Steve Scherf et al.
# Submitted via: audiograbber 1.83.01
#
DISCID=8411681a
DTITLE=T-Bone Walker - Everytime
DYEAR=2004
DGENRE=Blues
TTITLE0=Mean Old World
TTITLE1=I'm Still In Love With You
TTITLE2=Bobby Sox Blues
TTITLE3=I'm Gonna Find My Baby
TTITLE4=I Know Your Wig Is Gone
TTITLE5=T-Bone Jumps Again
TTITLE6=Call It Stormy Monday
TTITLE7=Midnight Blues
TTITLE8=Long Skirt Baby Blues
TTITLE9=I'm Waiting For Your Call
TTITLE10=Hypin' Woman Blues
TTITLE11=Description Blues
TTITLE12=T-Bone Shuffle
TTITLE13=Go Back To The One You Love
TTITLE14=You're My Best Poker Hand
TTITLE15=West Side Baby
TTITLE16=Glamour Girl
TTITLE17=Blue Mood
TTITLE18=Everytime
TTITLE19=Party Girl
TTITLE20=Love Is Just A Gamble
TTITLE21=High Society
TTITLE22=Got No Use For You
TTITLE23=Railroad Station Blues
TTITLE24=Bye Bye Baby
TTITLE25=Pony Tail
EXTD=Updated track info.
EXTT0=
EXTT1=
EXTT2=
EXTT3=
EXTT4=
EXTT5=
EXTT6=
EXTT7=
EXTT8=
EXTT9=
EXTT10=
EXTT11=
EXTT12=
EXTT13=
EXTT14=
EXTT15=
EXTT16=
EXTT17=
EXTT18=
EXTT19=
EXTT20=
EXTT21=
EXTT22=
EXTT23=
EXTT24=
EXTT25=
PLAYORDER=
